# xmcd
#
# Track frame offsets:
#	150
#	14870
#	35063
#	56393
#	79524
#	95936
#	121592
#	147625
#	163482
#	185188
#	201797
#
# Disc length: 2965
#
# Revision: 2
# Processed by: cddbd v1.5.1PL0 Copyright (c) Steve Scherf et al.
# Submitted via: CDex 1.50Beta7
# Normalized: r0:DSETVAR1,TDELIM( - ),TSWAP
#
DISCID=a70b930b
DTITLE=Various Artist - Spring Entertaining
DYEAR=2001
DGENRE=Jazz
TTITLE0=George Benson - This Masquerade
TTITLE1=Boney James - Lights Down Low
TTITLE2=Randy Crawford - Give Me The Night
TTITLE3=Warren Hill - Take Me Away
TTITLE4=Michael McDonald - I Keep Forgettin'
TTITLE5=Bob James - Take Me There
TTITLE6=David Sanborn and Bob James - Since I Fell for You
TTITLE7=Bobby Caldwell - What You Wont Do for Love
TTITLE8=Norman Brown - Out'a Nowhere
TTITLE9=Nicolette Larson and Michael McDonald - Let Me Go, Love
TTITLE10=Oleta Addams - Get Here
EXTD=YEAR: 2001
EXTT0=
EXTT1=
EXTT2=
EXTT3=
EXTT4=
EXTT5=
EXTT6=
EXTT7=
EXTT8=
EXTT9=
EXTT10=
PLAYORDER=
